<?xml version="1.0" standalone="no"?>
<!DOCTYPE svg PUBLIC "-//W3C//DTD SVG 20010904//EN"
 "http://www.w3.org/TR/2001/REC-SVG-20010904/DTD/svg10.dtd">
<svg version="1.0" xmlns="http://www.w3.org/2000/svg"
 width="1280.000000pt" height="1022.000000pt" viewBox="0 0 1280.000000 1022.000000"
 preserveAspectRatio="xMidYMid meet">

<g transform="translate(0.000000,1022.000000) scale(0.100000,-0.100000)"
fill="#000000" stroke="none">
<path d="M8025 10200 c-1056 -76 -2302 -418 -3487 -957 l-167 -76 85 -90 c101
-108 172 -201 243 -320 51 -84 173 -340 222 -462 13 -33 24 -61 25 -63 1 -1
59 23 130 54 963 420 1984 706 2899 813 319 37 476 46 815 46 664 -1 1160 -85
1665 -283 571 -223 1051 -615 1361 -1110 442 -707 554 -1595 318 -2537 -332
-1329 -1325 -2649 -2684 -3570 -80 -54 -149 -103 -155 -108 -17 -17 12 2 185
116 1519 1008 2619 2317 3081 3666 341 994 313 1943 -81 2777 -348 738 -1002
1346 -1826 1699 -473 203 -959 323 -1584 391 -170 18 -857 27 -1045 14z"/>
<path d="M2 7033 l3 -2628 655 0 655 0 3 563 2 562 -40 0 -40 0 0 1506 0 1507
283 -6 c214 -4 313 -10 412 -26 419 -66 729 -217 969 -472 242 -257 365 -595
366 -1005 1 -423 -133 -776 -390 -1032 l-90 -89 0 -657 c0 -480 3 -656 11
-656 21 0 193 72 300 126 598 299 1040 765 1263 1333 217 551 231 1291 36
1881 -148 447 -444 843 -845 1132 -473 340 -1078 532 -1822 577 -94 6 -522 11
-952 11 l-781 0 2 -2627z m147 1507 c58 -488 58 -2519 0 -3015 -11 -95 -21
-126 -35 -112 -12 12 -33 235 -45 492 -18 351 -18 1896 -1 2245 24 495 52 630
81 390z"/>
<path d="M8602 7099 c-72 -12 -218 -68 -288 -110 -134 -79 -288 -258 -357
-415 -55 -125 -71 -214 -71 -384 0 -159 9 -213 55 -338 79 -215 258 -409 462
-502 259 -117 550 -102 804 41 151 85 312 271 376 435 51 128 62 198 61 374
-1 197 -17 270 -93 425 -109 221 -305 384 -548 456 -79 24 -312 34 -401 18z
m366 -80 c159 -42 277 -114 395 -239 162 -172 243 -425 217 -674 -23 -221
-100 -388 -247 -533 -272 -269 -693 -311 -1011 -99 -82 54 -203 179 -251 259
-78 131 -111 250 -118 423 -4 100 -2 150 11 215 96 475 552 769 1004 648z"/>
<path d="M8652 6689 c-165 -32 -323 -187 -376 -368 -24 -84 -21 -239 7 -322
48 -141 141 -251 260 -308 81 -39 134 -50 228 -51 132 0 239 44 342 140 111
104 160 226 159 397 0 161 -43 266 -151 374 -69 69 -156 119 -241 138 -53 12
-167 12 -228 0z"/>
<path d="M7240 7040 c-132 -14 -216 -50 -303 -130 -67 -61 -100 -115 -122
-200 -44 -167 24 -354 171 -473 32 -26 115 -80 184 -119 225 -129 303 -193
316 -263 12 -67 -43 -137 -130 -165 -100 -32 -289 10 -450 100 l-86 48 0 -31
c0 -44 19 -303 25 -354 l6 -41 107 -26 c213 -50 334 -58 470 -30 202 41 349
167 403 346 17 56 20 88 17 176 -4 118 -27 184 -88 263 -43 53 -169 146 -292
215 -283 158 -308 179 -308 260 0 80 62 124 174 124 81 0 165 -26 291 -90 54
-27 100 -50 102 -50 1 0 3 83 3 183 l0 184 -112 31 c-90 25 -282 57 -308 50
-3 0 -34 -4 -70 -8z"/>
<path d="M10100 7040 c-221 -24 -383 -152 -426 -338 -40 -170 26 -347 175
-466 36 -30 120 -84 186 -121 205 -116 281 -176 306 -244 15 -38 2 -87 -32
-126 -89 -101 -316 -82 -543 45 l-86 48 0 -26 c0 -36 18 -285 25 -348 l6 -51
107 -26 c276 -68 453 -62 620 19 177 86 272 243 272 451 0 238 -97 348 -495
563 -157 84 -195 123 -195 197 0 76 64 123 167 123 83 0 162 -23 283 -83 57
-29 108 -53 112 -55 5 -2 8 79 8 181 l0 185 -112 31 c-90 25 -283 56 -308 49
-3 0 -34 -4 -70 -8z"/>
<path d="M5310 6215 l0 -825 173 2 172 3 5 432 5 432 125 -117 c665 -622 872
-812 885 -812 13 0 15 102 15 830 l0 830 -175 0 -175 0 -2 -438 -3 -439 -240
225 c-132 123 -354 330 -493 461 -139 130 -262 237 -273 239 -19 3 -19 -11
-19 -823z"/>
<path d="M4772 6193 l3 -798 188 -3 187 -2 0 800 0 800 -190 0 -190 0 2 -797z"/>
<path d="M1578 6932 l-108 -3 0 -2399 c0 -1593 3 -2400 10 -2400 6 0 686 0
1513 0 l1502 0 5 506 c3 278 3 508 1 510 -2 2 -424 4 -938 4 l-933 0 0 1890 0
1890 -459 0 c-253 0 -465 1 -473 3 -7 1 -61 1 -120 -1z m30 -627 c52 -195 86
-1565 63 -2485 -19 -743 -49 -1130 -89 -1130 -14 0 -31 117 -46 312 -21 266
-25 363 -37 967 -19 912 12 2042 63 2341 10 58 14 66 24 52 7 -10 17 -35 22
-57z"/>
<path d="M4050 5080 l0 -70 3280 0 3281 0 -3 68 -3 67 -3277 3 -3278 2 0 -70z"/>
<path d="M4546 4733 c-2 -10 -14 -70 -25 -133 -12 -63 -28 -144 -36 -180 -8
-36 -51 -252 -95 -480 -44 -228 -87 -445 -95 -482 -24 -106 -34 -98 119 -98
l134 0 15 73 c8 39 23 113 32 162 9 50 22 122 30 160 7 39 19 102 26 140 6 39
14 74 17 79 5 9 19 -15 202 -339 176 -312 184 -325 194 -322 9 3 36 51 191
343 123 232 169 314 173 309 5 -5 12 -40 53 -265 16 -91 36 -201 44 -245 8
-44 15 -83 15 -87 0 -5 65 -8 145 -8 116 0 145 3 145 14 0 14 -42 238 -60 321
-6 28 -55 274 -109 548 -55 274 -102 501 -106 505 -9 9 -8 11 -111 -183 -81
-151 -143 -267 -204 -380 -15 -27 -53 -99 -85 -160 -95 -180 -77 -174 -149
-48 -107 186 -402 706 -420 741 -18 36 -32 41 -40 15z"/>
<path d="M8160 4055 l0 -695 140 0 140 0 0 366 c0 227 4 364 10 362 9 -3 182
-166 555 -523 230 -220 268 -255 284 -255 8 0 11 189 11 695 l0 695 -145 0
-145 0 0 -365 c0 -201 -3 -365 -7 -365 -4 0 -43 35 -87 78 -165 157 -500 477
-511 487 -6 6 -59 56 -117 113 -58 56 -110 102 -117 102 -8 0 -11 -180 -11
-695z"/>
<path d="M10000 4741 c-255 -36 -471 -216 -555 -462 -38 -112 -47 -318 -19
-431 63 -261 264 -462 514 -514 103 -22 306 -14 408 16 82 24 205 73 239 96
l23 14 0 320 0 320 -280 0 -280 0 0 -135 0 -135 125 0 125 0 0 -99 0 -99 -52
-13 c-75 -19 -193 -17 -254 4 -182 63 -286 238 -271 456 14 213 168 370 378
388 129 11 261 -41 370 -144 l37 -35 6 84 c4 45 12 118 17 161 6 42 7 82 4 87
-11 18 -137 77 -210 99 -80 23 -239 34 -325 22z"/>
<path d="M3511 4718 c-5 -13 -64 -135 -131 -273 -67 -137 -139 -286 -160 -330
-21 -44 -102 -210 -180 -370 -133 -272 -180 -371 -180 -381 0 -2 69 -4 153 -4
l153 0 39 93 c22 50 44 95 50 99 5 5 129 7 274 5 l265 -2 40 -97 40 -98 158 0
c87 0 158 4 158 9 0 8 -31 76 -162 351 -28 58 -67 141 -88 185 -21 44 -64 134
-95 200 -32 66 -74 156 -95 200 -21 44 -66 139 -100 210 -34 72 -71 151 -82
178 -22 51 -43 60 -57 25z m27 -545 c6 -16 42 -106 81 -202 39 -95 71 -177 71
-182 0 -9 -333 -13 -342 -4 -3 3 26 81 64 173 38 92 76 184 85 205 18 44 28
46 41 10z"/>
<path d="M5930 4030 l0 -670 155 0 155 0 0 243 0 244 102 7 c127 8 206 28 284
71 115 64 182 163 205 301 36 220 -111 414 -347 459 -53 11 -147 15 -315 15
l-239 0 0 -670z m537 399 c58 -30 83 -75 83 -147 0 -118 -79 -180 -236 -185
l-69 -2 -3 184 -2 184 90 -5 c68 -4 102 -11 137 -29z"/>
<path d="M6922 4248 c5 -421 6 -458 26 -530 53 -194 155 -311 322 -370 71 -26
242 -35 336 -19 196 35 336 169 400 386 16 53 18 117 21 523 l4 462 -135 0
-134 0 -5 -432 c-4 -468 -5 -478 -60 -560 -93 -139 -328 -137 -411 4 -51 87
-56 138 -56 581 l0 407 -156 0 -156 0 4 -452z"/>
<path d="M45 3665 c-16 -205 21 -597 81 -864 239 -1069 1004 -1939 2109 -2399
457 -190 939 -307 1525 -369 238 -26 1027 -25 1280 0 327 33 690 87 920 137
52 11 129 28 170 36 469 98 1155 321 1688 550 312 134 823 382 857 416 6 6
-36 -13 -92 -41 -736 -367 -1613 -635 -2468 -756 -626 -88 -1301 -102 -1850
-39 -684 78 -1253 247 -1750 519 -898 491 -1415 1290 -1505 2325 -6 69 -11
227 -11 353 l0 227 -473 0 -474 0 -7 -95z"/>
<path d="M9254 1514 c-18 -14 -18 -15 4 -4 12 6 22 13 22 15 0 8 -5 6 -26 -11z"/>
<path d="M9144 1444 c-18 -14 -18 -15 4 -4 12 6 22 13 22 15 0 8 -5 6 -26 -11z"/>
<path d="M8770 1230 c-9 -6 -10 -10 -3 -10 6 0 15 5 18 10 8 12 4 12 -15 0z"/>
<path d="M8724 1204 c-18 -14 -18 -15 4 -4 12 6 22 13 22 15 0 8 -5 6 -26 -11z"/>
</g>
</svg>
